Coordinates
version=1
nRows=20
nColumns=30
inDegrees=yes

Units are S.I. units (second, meters, Newtons, ...)
Angles are in degrees.

endheader
time	floatyaw	floatroll	floatpitch	floatx	floaty	floatz	pro_sup_l	deviation_l	flexion_l	cmc_flexion_l	cmc_abduction_l	mp_flexion_l	ip_flexion_l	2mcp_flexion_l	2mcp_abduction_l	2pm_flexion_l	2md_flexion_l	3mcp_flexion_l	3mcp_abduction_l	3pm_flexion_l	3md_flexion_l	4mcp_flexion_l	4mcp_abduction_l	4pm_flexion_l	4md_flexion_l	5mcp_flexion_l	5mcp_abduction_l	5pm_flexion_l	5md_flexion_l
-0.995000	-3.046650	-4.537392	92.867313	-0.008200	-0.259007	-0.003300	91.343048	0.130583	-2.738332	27.127468	0.222673	-18.966126	-33.939190	18.266171	6.726018	32.883496	20.196770	7.581909	4.773537	36.222153	21.311659	-3.731801	-3.682825	53.787411	31.737234	-22.812923	-9.572614	64.345788	47.675264
-0.985000	-3.046650	-4.537392	92.867313	-0.008193	-0.259005	-0.003329	91.339320	0.136730	-2.744617	27.095152	0.248584	-18.955398	-33.891057	18.286918	6.734995	32.865311	20.222018	7.589211	4.772106	36.217339	21.327666	-3.705851	-3.677192	53.777958	31.739461	-22.854314	-9.570500	64.416641	47.664107
-0.975000	-3.046650	-4.537392	92.867313	-0.008184	-0.259003	-0.003362	91.360224	0.150899	-2.753180	27.087739	0.240516	-18.946269	-33.857913	18.286317	6.747310	32.870259	20.251312	7.587560	4.769591	36.228106	21.338770	-3.680159	-3.671293	53.786268	31.735139	-22.884272	-9.582339	64.490859	47.636505
-0.965000	-3.046650	-4.537392	92.867313	-0.008175	-0.258999	-0.003395	91.402224	0.171614	-2.762857	27.104931	0.201073	-18.940936	-33.840031	18.263803	6.758987	32.901206	20.275233	7.577164	4.767435	36.252955	21.339585	-3.658120	-3.666716	53.811309	31.723122	-22.897984	-9.604918	64.557165	47.603794
-0.955000	-3.046650	-4.537392	92.867313	-0.008167	-0.258994	-0.003426	91.453302	0.195327	-2.771949	27.139871	0.143780	-18.941163	-33.835482	18.226035	6.766482	32.952339	20.285682	7.560593	4.766560	36.287403	21.329240	-3.642454	-3.664092	53.848095	31.706764	-22.896826	-9.632167	64.606711	47.578789
-0.945000	-3.046650	-4.537392	92.867313	-0.008160	-0.258991	-0.003454	91.497942	0.217234	-2.779190	27.181969	0.088708	-18.947687	-33.840879	18.185571	6.768771	33.009542	20.279780	7.543385	4.767168	36.323967	21.312540	-3.633952	-3.663144	53.888356	31.693567	-22.886689	-9.657164	64.634483	47.571275
-0.935000	-3.046650	-4.537392	92.867313	-0.008154	-0.258989	-0.003476	91.524331	0.232948	-2.784284	27.221795	0.053477	-18.959989	-33.853568	18.156068	6.767805	33.055215	20.261253	7.532766	4.768965	36.353563	21.297684	-3.631349	-3.663167	53.922740	31.691892	-22.874391	-9.674329	64.639619	47.583952
-0.925000	-3.046650	-4.537392	92.867313	-0.008149	-0.258987	-0.003492	91.529839	0.240274	-2.787789	27.255707	0.044569	-18.976619	-33.874361	18.146446	6.767096	33.075670	20.238386	7.534901	4.771536	36.368397	21.291803	-3.632008	-3.663538	53.943816	31.706721	-22.863886	-9.681047	64.624913	47.611526
-0.915000	-3.046650	-4.537392	92.867313	-0.008144	-0.258984	-0.003498	91.521491	0.240006	-2.790525	27.287063	0.054770	-18.995695	-33.908316	18.157644	6.769456	33.066922	20.219677	7.552323	4.774577	36.364978	21.297101	-3.632819	-3.663944	53.948452	31.737096	-22.854320	-9.678133	64.595932	47.643953
-0.905000	-3.046650	-4.537392	92.867313	-0.008140	-0.258977	-0.003494	91.511167	0.235224	-2.792890	27.322483	0.068672	-19.015073	-33.961611	18.183748	6.775297	33.035352	20.209653	7.582921	4.777842	36.345506	21.310006	-3.631053	-3.664360	53.938385	31.776505	-22.841361	-9.669018	64.560075	47.671953
-0.895000	-3.046650	-4.537392	92.867313	-0.008136	-0.258963	-0.003481	91.508533	0.229497	-2.794407	27.365245	0.072670	-19.032228	-34.035596	18.216250	6.782403	32.993205	20.207290	7.620711	4.780872	36.316933	21.323749	-3.625263	-3.664985	53.918888	31.815657	-22.821257	-9.658124	64.525547	47.691303
-0.885000	-3.046650	-4.537392	92.867313	-0.008132	-0.258939	-0.003462	91.516057	0.225141	-2.793739	27.410705	0.062906	-19.044372	-34.122209	18.248341	6.787177	32.952352	20.207904	7.657660	4.782828	36.288401	21.332677	-3.615995	-3.666208	53.896577	31.846112	-22.794980	-9.649260	64.500287	47.703381
-0.875000	-3.046650	-4.537392	92.867313	-0.008126	-0.258908	-0.003442	91.529050	0.222536	-2.789219	27.447721	0.046061	-19.049159	-34.205040	18.276415	6.786673	32.920696	20.207070	7.685712	4.782712	36.268505	21.335401	-3.605906	-3.668486	53.877755	31.863027	-22.769423	-9.644656	64.490974	47.711922
-0.865000	-3.046650	-4.537392	92.867313	-0.008119	-0.258871	-0.003424	91.540250	0.220737	-2.779658	27.465713	0.032697	-19.045731	-34.266510	18.298239	6.780290	32.902897	20.203663	7.698459	4.779946	36.263316	21.334619	-3.599037	-3.672063	53.867746	31.865741	-22.754525	-9.644702	64.502160	47.718327
-0.855000	-3.046650	-4.537392	92.867313	-0.008110	-0.258835	-0.003410	91.545470	0.218738	-2.765050	27.462395	0.028216	-19.035423	-34.296784	18.310131	6.770143	32.903120	20.199858	7.692492	4.774860	36.275240	21.333871	-3.599295	-3.676625	53.870502	31.856203	-22.758020	-9.648161	64.535393	47.718784
-0.845000	-3.046650	-4.537392	92.867313	-0.008098	-0.258802	-0.003399	91.546280	0.216443	-2.746933	27.446296	0.028368	-19.021599	-34.298269	18.306551	6.759845	32.925905	20.198417	7.668528	4.768613	36.302511	21.333946	-3.608543	-3.681189	53.887668	31.836816	-22.781080	-9.652754	64.588437	47.705528
-0.835000	-3.046650	-4.537392	92.867313	-0.008086	-0.258778	-0.003392	91.548245	0.214763	-2.728342	27.431942	0.022646	-19.008523	-34.282742	18.283352	6.752470	32.973576	20.199720	7.631981	4.762522	36.339499	21.331976	-3.625164	-3.684401	53.917404	31.809602	-22.817430	-9.656153	64.655110	47.671769
-0.825000	-3.046650	-4.537392	92.867313	-0.008076	-0.258765	-0.003388	91.556549	0.214960	-2.713388	27.431192	0.002771	-18.999794	-34.263645	18.242318	6.749041	33.042422	20.201101	7.592199	4.757331	36.378206	21.324021	-3.644061	-3.685162	53.954189	31.777242	-22.856102	-9.657191	64.726430	47.617087
-0.815000	-3.046650	-4.537392	92.867313	-0.008068	-0.258766	-0.003389	91.572351	0.217756	-2.706374	27.446767	-0.030049	-18.997080	-34.249165	18.192968	6.748529	33.121472	20.199104	7.559915	4.752979	36.410817	21.309118	-3.658507	-3.683200	53.990469	31.744698	-22.885909	-9.656689	64.793110	47.549401
-0.805000	-3.046650	-4.537392	92.867313	-0.008063	-0.258781	-0.003394	91.591858	0.222738	-2.710337	27.471770	-0.063886	-18.999745	-34.240052	18.149504	6.749148	33.195601	20.192770	7.543510	4.749057	36.432370	21.291545	-3.663294	-3.679190	54.019688	31.719435	-22.899563	-9.657254	64.848432	47.481905
